<?xml version="1.0" encoding="UTF-8"?>
<svg width="434px" height="248px" viewBox="0 0 434 248" version="1.1" xmlns="http://www.w3.org/2000/svg" xmlns:xlink="http://www.w3.org/1999/xlink">
    <!-- Generator: Sketch 57.1 (83088) - https://sketch.com -->
    <title>LOGO</title>
    <desc>Created with Sketch.</desc>
    <g id="Page-1" stroke="none" stroke-width="1" fill="none" fill-rule="evenodd">
        <g id="Main-Screen-2" transform="translate(-200.000000, -149.000000)">
            <g id="LOGO" transform="translate(200.000000, 149.000000)">
                <g id="WARS" transform="translate(2.000000, 89.000000)">
                    <path d="M266.289274,122.984582 C267.038036,123.242336 267.401768,123.670417 267.795791,124.037991 C271.238819,127.247289 274.684924,130.453729 278.103576,133.688993 C283.877138,139.152805 289.564086,144.708093 295.79604,149.663543 C298.768843,152.027637 302.024917,153.059606 305.828127,153.13536 C323.809305,153.493404 341.790955,153.451954 359.772369,153.412886 C367.695191,153.395496 375.627951,153.550577 383.535627,152.849258 C386.168601,152.61604 388.833995,152.345661 391.129032,150.883705 C395.601016,148.03531 399.120245,144.304548 400.9957,139.233799 C403.213352,133.237328 402.979778,127.498611 398.924772,122.255391 C397.350809,120.220755 395.773061,118.188977 394.201938,116.152197 C390.697381,111.610535 386.948127,107.264451 383.68874,102.524352 C382.295342,100.498053 382.37036,98.5463178 383.24715,96.4616555 C383.861732,95.0001764 384.794135,94.2021398 386.580373,94.2140508 C399.120955,94.2974277 411.662248,94.2614565 424.203303,94.3043361 C425.136416,94.3076712 425.365257,94.0608754 425.360761,93.1342 C425.33118,87.0205246 425.338279,80.906611 425.404442,74.793412 C425.415191,73.7590613 425.182563,73.4920168 424.129705,73.4946181 C408.078176,73.5332288 392.02712,73.5239382 375.975828,73.5179827 C374.278334,73.5175063 372.584626,73.5513335 370.900148,73.777166 C366.258959,74.3982052 362.074268,76.0309644 358.607575,79.3136346 C351.920069,85.6455194 350.246004,97.5155403 356.666331,106.036666 C359.632035,109.972773 363.222023,113.335485 366.305342,117.154627 C367.79624,119.001307 369.273413,120.848464 370.632496,122.804488 C372.394123,125.339862 370.263558,130.057331 367.055761,130.282687 C364.500409,130.462305 361.952157,130.693616 359.387812,130.715532 C345.782539,130.831546 332.177029,130.825352 318.572466,130.645019 C310.811513,130.542585 309.828231,130.079009 305.332345,125.208603 C305.224905,125.092352 305.121016,124.973004 305.016416,124.853894 C302.794505,122.323046 302.8132,122.157959 305.874984,120.697909 C309.885973,118.78548 313.404729,116.176972 316.300858,112.825218 C320.268067,108.234006 322.473649,102.844043 321.545269,96.7289382 C319.718328,84.6957366 308.03939,74.5616241 295.957436,74.4839644 C278.132211,74.3693806 260.305803,74.4589513 242.479869,74.4360822 C241.691113,74.4351293 241.499189,74.6659644 241.501534,75.4373204 C241.574444,101.082407 241.628874,126.727255 241.662715,152.372103 C241.663661,153.140601 241.850142,153.358572 242.630852,153.358572 C250.044638,153.358572 257.459135,153.381679 264.872448,153.459695 C265.888388,153.46982 266.197691,153.253755 266.195561,152.178669 C266.183018,145.271245 266.25354,138.363582 266.286908,131.456158 C266.300633,128.684708 266.289274,125.913258 266.289274,122.984582 M388.480676,99.7257445 C389.424911,101.30943 390.41553,102.578666 391.410172,103.843137 C395.275858,108.758328 399.163552,113.655891 403.011252,118.584899 C408.761623,125.950658 409.109972,133.98248 405.62979,142.343522 C403.220215,148.131789 399.011859,152.430943 393.759402,155.697176 C390.764117,157.55958 387.34854,158.034828 383.919948,158.333794 C375.69729,159.050121 367.449074,158.898852 359.211744,158.921483 C341.664584,158.970318 324.117424,158.881224 306.56979,158.682072 C300.485033,158.612988 295.488868,156.660538 290.926956,152.82615 C284.654772,147.553629 278.764068,141.870655 272.835027,136.224844 C272.529511,135.933739 272.219262,135.647875 271.883692,135.333902 C271.61107,135.763888 271.734602,136.164813 271.731525,136.538341 C271.674493,143.564875 271.596871,150.591171 271.61249,157.617467 C271.61533,158.807137 271.266981,159.009624 270.165136,159.000185 C259.203249,158.901234 248.240415,158.851208 237.278055,158.838582 C236.336896,158.837629 236.217624,158.534614 236.216204,157.702035 C236.17337,128.524148 236.111604,99.3462602 236.018574,70.1683728 C236.015288,69.1485534 236.313704,68.9489251 237.267879,68.9503545 C256.31564,68.9789408 275.363637,68.9803702 294.411398,68.9686974 C306.934468,68.9610743 316.248085,74.7217079 322.90388,85.1252471 C325.796459,89.6464225 327.549802,94.6407026 327.165718,100.082121 C326.645087,107.457409 323.658795,113.741174 318.176786,118.755941 C316.394098,120.386794 314.556981,121.951899 312.500725,123.217561 C311.670318,123.728543 311.919984,124.010595 312.506641,124.441297 C313.230791,124.97348 314.065694,124.933697 314.884268,124.979912 C321.97621,125.380836 329.076671,125.240286 336.173819,125.267443 C344.218279,125.298412 352.263212,125.234569 360.308146,125.213606 C361.960676,125.209556 363.613443,125.213129 365.458133,125.213129 C365.112624,124.187593 364.573061,123.663032 364.118218,123.106789 C361.813006,120.287218 359.438455,117.530299 356.938243,114.879627 C353.36411,111.090501 350.033255,107.064585 348.44462,102.001221 C344.01547,87.8843099 351.283479,72.1179644 367.721695,68.758111 C370.321774,68.2266424 372.945282,68.0241555 375.595294,68.0255848 C393.617648,68.0348754 411.640239,68.0391634 429.662593,68.0067546 C430.651792,68.0048597 430.891283,68.2545141 430.884789,69.2450325 C430.818631,79.0496869 430.793309,88.8545796 430.805615,98.6594723 C430.806799,99.6164016 430.530154,99.8169827 429.628752,99.8134094 C416.418212,99.7624304 403.206962,99.7483754 389.996186,99.7257445 C389.566428,99.7250298 389.136434,99.7257445 388.480676,99.7257445" id="Fill-1" fill="#FBE51F"></path>
                    <path d="M92.0521557,108.219407 C91.2607418,106.971572 90.8557772,105.774653 90.4078474,104.602835 C86.6375935,94.7363248 83.4344326,84.6690139 80.0278398,74.6743738 C79.740614,73.8314869 79.4256152,73.500404 78.4927248,73.5056015 C70.8579786,73.54917 63.2227576,73.5477357 55.587774,73.5056015 C54.706157,73.5015992 54.3726427,73.8114068 54.0989474,74.6017029 C50.6187679,84.6563443 47.1058304,94.6992722 43.5983525,104.744352 C43.1914889,105.908999 42.766822,107.066952 42.2426943,108.528498 C41.9146397,107.670312 41.6945915,107.130061 41.50018,106.580965 C37.7213806,95.9165099 33.9349852,85.2554011 30.1906054,74.5787542 C29.9038543,73.7614455 29.5328346,73.5197669 28.691809,73.5238308 C22.0063321,73.5556243 15.3203805,73.5525167 8.63490361,73.5109221 C7.64290645,73.5047069 7.45253035,73.6789736 7.79126688,74.6774814 C16.5236429,100.432624 25.2272963,126.197568 33.9209799,151.966098 C34.140316,152.615833 34.4225569,152.880221 35.1513033,152.873767 C39.70039,152.834324 44.2501889,152.836236 48.799513,152.872333 C49.516628,152.877831 49.81596,152.63161 50.0519124,151.976377 C54.3163845,140.137234 58.60317,128.305981 62.887107,116.473771 C64.2593816,112.683648 65.6380653,108.895677 67.0165117,105.0991 C67.4860428,105.268347 67.4245622,105.660149 67.5176139,105.931469 C72.8001946,121.369256 78.0754166,136.81015 83.3214413,152.260606 C83.621248,153.143653 83.9948789,153.487406 84.9797548,153.473043 C89.4094411,153.40589 93.8410263,153.421906 98.2714247,153.462784 C99.1110261,153.470433 99.490354,153.239034 99.7754434,152.399733 C108.554108,126.575027 117.358884,100.759643 126.191195,74.953583 C126.552245,73.8991378 126.232974,73.8016057 125.316225,73.8054305 C118.630511,73.8326821 111.944559,73.8455908 105.259082,73.7922828 C104.267322,73.7843942 103.926924,74.1482268 103.627355,75.0243416 C100.671778,83.6640517 97.6751345,92.2894189 94.6763549,100.914069 C93.8441122,103.30695 92.964869,105.683336 92.0521557,108.219407 M42.1731429,92.1175427 C42.7174476,90.5919318 43.1855545,89.3005889 43.6394187,88.0047041 C45.8562795,81.6730123 48.0871456,75.3461016 50.2612786,68.9998278 C50.5326002,68.2078584 50.8941248,68.0084915 51.6843518,68.0106429 C61.850483,68.0386117 72.0166142,68.0484127 82.1822706,68.0000616 C83.2310008,67.9951047 83.676082,68.2881788 84.008172,69.2893162 C86.4080503,76.5236571 88.8729698,83.7360055 91.3179496,90.9550472 C91.4432845,91.3241389 91.5752659,91.6908402 91.7255253,92.1194551 C92.1865109,91.8333134 92.1986171,91.3686021 92.3298864,90.988036 C94.8043009,83.821346 97.2860741,76.6575246 99.7160992,69.4755354 C100.020891,68.5747986 100.419209,68.2874617 101.380347,68.2915255 C111.902069,68.3333591 122.424265,68.3333591 132.946224,68.293916 C134.033646,68.2900912 134.178921,68.5217298 133.834012,69.5309948 C123.768292,98.9823138 113.724409,128.441043 103.699517,157.906466 C103.426772,158.708237 103.084,159.004896 102.208792,158.999939 C95.1283201,158.959238 88.0473737,158.959238 80.9671393,158.999939 C80.092881,159.004896 79.7522455,158.704651 79.4804492,157.906944 C75.4725813,146.14621 71.4324302,134.396711 67.3991629,122.644582 C67.2856969,122.314456 67.1653469,121.986719 67.0407242,121.636513 C66.5951681,121.921937 66.5832993,122.399079 66.4403985,122.791837 C62.2511748,134.31902 58.0621885,145.846203 53.9104703,157.387491 C53.634876,158.153643 53.3056346,158.38815 52.5009276,158.384086 C45.4598605,158.347273 38.4187933,158.346555 31.3777262,158.384803 C30.5639989,158.389106 30.2233634,158.153643 29.962249,157.378646 C20.0467876,127.961272 10.1128108,98.5501131 0.149161968,69.1494725 C-0.204529289,68.1053063 0.0663175058,67.9984514 1.00941506,68.0015591 C11.5311365,68.0357431 22.0530953,68.045066 32.5748168,68.0225954 C33.4220141,68.020683 33.8022916,68.2628396 34.0866689,69.083734 C36.6068971,76.3603866 39.1767371,83.6195886 41.732097,90.8835716 C41.8465126,91.2086783 41.9637767,91.5323506 42.1731429,92.1175427" id="Fill-7" fill="#FBE41F"></path>
                    <path d="M126.589988,151.847538 C126.673253,151.876704 126.74181,151.921648 126.810841,151.922126 C133.845398,152.000777 140.880192,152.065563 147.914749,152.167164 C148.599606,152.176966 148.769694,151.843474 148.928632,151.296739 C149.891987,147.979033 150.926983,144.681408 151.830321,141.347445 C152.103363,140.340515 152.552897,140.109581 153.526453,140.120817 C166.133335,140.264254 178.740929,140.371832 191.348285,140.45407 C192.115696,140.458851 192.446857,140.689068 192.664626,141.417013 C193.655499,144.726112 194.747665,148.004851 195.69394,151.326143 C195.970066,152.29578 196.405604,152.493484 197.326022,152.4838 C203.926227,152.410769 210.527143,152.396903 217.127585,152.365347 C218.512482,152.358653 218.517227,152.358892 218.047529,150.998389 C209.151023,125.222696 200.248587,99.4491538 191.378175,73.664615 C191.08236,72.8049471 190.725343,72.520224 189.813227,72.5237765 C178.113004,72.570427 166.413019,72.5830973 154.713033,72.5579958 C153.824877,72.5560833 153.526453,72.8824033 153.259816,73.6619853 C144.474804,99.3520945 135.665359,125.033597 126.865165,150.718208 C126.740624,151.082539 126.516213,151.432287 126.589988,151.847538 M209.049018,157.979485 C203.712727,157.979485 198.376437,157.961556 193.040384,157.999905 C192.276532,158.005304 191.953911,157.782737 191.73543,157.04523 C190.732222,153.656761 189.647172,150.293155 188.638033,146.90636 C188.421451,146.179372 188.098593,145.942222 187.326912,145.938397 C177.366944,145.889868 167.406738,145.813368 157.447244,145.696944 C156.535129,145.686426 156.158659,145.960391 155.916219,146.834881 C155.004104,150.125812 153.994016,153.388534 153.06482,156.674683 C152.853694,157.422231 152.589904,157.743292 151.71859,157.729904 C141.127376,157.567581 130.535925,157.447572 119.943763,157.358402 C119.004604,157.350513 118.825977,157.197752 119.146937,156.263257 C129.247577,126.869357 139.326868,97.4680448 149.384097,68.059083 C149.650259,67.2802182 149.989485,67.0442637 150.800782,67.0449809 C165.109963,67.0574121 179.419144,67.0421122 193.728563,67.0000185 C194.567614,66.9976466 194.962587,67.2233213 195.247253,68.0507158 C205.426413,97.6260649 215.627161,127.194003 225.852817,156.753096 C226.187299,157.718907 225.964074,157.845371 225.055754,157.839156 C219.720412,157.804253 214.384834,157.821943 209.049018,157.821943 C209.049018,157.874537 209.049018,157.927131 209.049018,157.979485" id="Fill-13" fill="#FBE51F"></path>
                    <path d="M278.196539,90.745075 C275.175528,90.745075 271.388549,90.7510331 267.601571,90.7382198 C267.032364,90.7362571 266.669388,90.7400702 266.670572,91.5305873 C266.679569,97.2882303 266.645237,103.046112 266.591804,108.803516 C266.585569,109.498466 266.770964,109.758476 267.485314,109.843081 C275.272842,110.765629 283.07434,110.643131 290.877258,110.163625 C292.625131,110.05638 294.252722,109.43817 295.732802,108.454373 C299.105898,106.211755 300.627888,102.350924 299.717488,98.4112078 C298.97141,95.1828858 295.597841,91.3006057 291.499266,91.1049426 C287.318768,90.905228 283.138743,91.0031787 278.196539,90.745075 M266.800798,123.511376 C266.800798,126.441318 266.812163,129.213966 266.79843,131.986615 C266.765045,138.897026 266.694486,145.807675 266.707272,152.718086 C266.709166,153.793875 266.399701,154.009796 265.383226,153.999666 C257.966014,153.921616 250.547855,153.898499 243.129933,153.898499 C242.349049,153.898499 242.16247,153.680434 242.161523,152.911842 C242.127428,127.255667 242.073206,101.59973 242.000021,75.9437929 C241.997675,75.171865 242.189699,74.9411685 242.97887,74.9418834 C260.81418,74.9647624 278.649963,74.875153 296.484563,74.9900246 C308.572871,75.0677179 320.258188,85.2062125 322.085854,97.2443789 C323.014722,103.362128 320.80798,108.754422 316.838684,113.347619 C313.941033,116.700822 310.420426,119.310458 306.407327,121.223953 C303.343933,122.684634 303.325228,122.849553 305.548545,125.381496 C305.652962,125.500657 305.756907,125.620057 305.864639,125.736358 C310.36289,130.609108 311.346453,131.072646 319.111487,131.175364 C332.723205,131.355536 346.335871,131.361971 359.948299,131.245669 C362.513993,131.223982 365.063585,130.992332 367.620281,130.812636 C370.829766,130.587421 372.96145,125.867674 371.198898,123.331204 C369.839099,121.374573 368.36115,119.526617 366.869468,117.679138 C363.784527,113.858107 360.192651,110.493941 357.225387,106.55637 C350.801683,98.0313211 352.476629,86.1561676 359.167652,79.8215448 C362.636168,76.5376936 366.82306,74.9039901 371.46669,74.2826823 C373.152054,74.0569905 374.846652,74.0229103 376.545039,74.023387 C392.604774,74.029345 408.664508,74.0386396 424.724242,74.0000156 C425.777654,73.9976481 426.010404,74.2648081 425.99965,75.2993678 C425.933452,81.4154484 425.926349,87.5320057 425.955946,93.6483246 C425.960444,94.5751624 425.73172,94.8220649 424.797879,94.8189667 C412.250228,94.7758303 399.702339,94.811817 387.155161,94.728404 C385.367984,94.7164879 384.435091,95.5151079 383.820186,96.9769806 C382.942935,99.0625443 382.867877,101.015362 384.262008,103.042537 C387.52311,107.784448 391.274335,112.132411 394.780735,116.676275 C396.352684,118.713697 397.931263,120.746592 399.506053,122.782108 C403.563429,128.027595 403.796889,133.768555 401.578071,139.767619 C399.701629,144.840561 396.180549,148.573174 391.706213,151.422801 C389.409969,152.88515 386.743173,153.155647 384.108815,153.389203 C376.19698,154.090587 368.260047,153.935439 360.333059,153.953075 C342.342188,153.99216 324.35108,154.033628 306.360446,153.675429 C302.555236,153.599404 299.297449,152.566989 296.323082,150.201873 C290.087851,145.244518 284.397912,139.686589 278.621314,134.220415 C275.200863,130.983752 271.752946,127.775926 268.308107,124.56524 C267.913877,124.197507 267.549954,123.769241 266.800798,123.511376" id="Fill-15" fill="#010000"></path>
                    <path d="M91.6289815,108.72794 C92.5440025,106.190836 93.4254688,103.813482 94.2598157,101.419627 C97.2661774,92.7914653 100.270397,84.1625863 103.233447,75.5193585 C103.533774,74.642887 103.875033,74.2789063 104.8693,74.2867981 C111.57168,74.3401277 118.274537,74.3272138 124.977155,74.2999512 C125.896222,74.2961248 126.216301,74.3936965 125.854338,75.4485711 C116.999695,101.265138 108.172657,127.091032 99.3717967,152.926253 C99.0859865,153.765896 98.7056994,153.99739 97.8639753,153.989737 C93.4223751,153.948843 88.9795851,153.93282 84.5386989,154 C83.5513329,154.014369 83.1767573,153.670477 82.8761925,152.78707 C77.6169039,137.330323 72.3283441,121.883142 67.032407,106.43907 C66.9391201,106.167639 67.0007561,105.775678 66.5300378,105.606362 C65.1481062,109.404485 63.7659366,113.193998 62.3901923,116.985664 C58.0954239,128.822691 53.7977998,140.658762 49.5225455,152.502725 C49.2859965,153.158225 48.9859076,153.404546 48.2669795,153.399045 C43.706153,153.362934 39.1448505,153.361021 34.5842619,153.40048 C33.8536729,153.406937 33.5707184,153.142441 33.3508278,152.492442 C24.6351632,126.71342 15.9095036,100.937986 7.1550488,75.1723571 C6.81545582,74.1734427 7.00631326,73.999105 8.00081857,74.0053228 C14.7031989,74.0469343 21.4060552,74.0500432 28.1084355,74.0182367 C28.9515875,74.0141713 29.3235454,74.2559482 29.6110214,75.0735896 C33.3648684,85.7545836 37.1608374,96.4200331 40.949191,107.088831 C41.1440941,107.63815 41.3646986,108.178621 41.6935827,109.037156 C42.2190356,107.575015 42.6447762,106.41659 43.0526685,105.251469 C46.5690146,95.2022998 50.0908342,85.1552828 53.579813,75.0965477 C53.8542003,74.3059298 54.1885578,73.9959961 55.0724038,74 C62.7266916,74.0421514 70.3812174,74.0435863 78.0352672,74 C78.9705163,73.9948004 79.2863116,74.3260181 79.5742636,75.1692482 C82.9894695,85.1679576 86.2007293,95.2393675 89.9805158,105.109894 C90.4295781,106.28219 90.8355666,107.479596 91.6289815,108.72794" id="Fill-19" fill="#010100"></path>
                    <path d="M173.475683,84.8550572 C173.369835,85.0767777 173.312987,85.1738851 173.275167,85.2776895 C168.752722,97.7036049 164.243359,110.134304 159.689992,122.548739 C159.28777,123.645621 159.922858,123.434186 160.502286,123.43299 C168.743921,123.417443 176.985556,123.375347 185.226952,123.412659 C186.364878,123.417921 186.411023,123.146929 186.08444,122.188532 C182.894966,112.828435 179.741885,103.455901 176.580479,94.0862361 C175.55411,91.0445752 174.53345,88.0010009 173.475683,84.8550572 M127.014595,152.36309 C126.940621,151.947633 127.165637,151.597712 127.290514,151.233201 C136.114431,125.535866 144.947387,99.8416411 153.75632,74.1388055 C154.023675,73.3590764 154.322904,73.0323556 155.213454,73.034269 C166.944981,73.059383 178.676507,73.0467064 190.408272,73.0000328 C191.322846,72.9964785 191.680826,73.2813427 191.977438,74.1414365 C200.871763,99.9387485 209.798198,125.725058 218.718687,151.513521 C219.189413,152.874698 219.184894,152.874459 217.796264,152.881156 C211.178028,152.912728 204.559317,152.926839 197.941081,152.999668 C197.01842,153.009357 196.581708,152.811554 196.304838,151.841437 C195.356011,148.5185 194.260901,145.238137 193.267357,141.927398 C193.049001,141.199092 192.716947,140.968761 191.947468,140.963978 C179.306124,140.8817 166.664543,140.774068 154.023675,140.63056 C153.047495,140.619318 152.596749,140.850367 152.322971,141.857796 C151.417198,145.19341 150.379412,148.492668 149.41346,151.812018 C149.254093,152.359024 149.083547,152.692681 148.396605,152.682875 C141.343322,152.581223 134.289564,152.516405 127.236044,152.437954 C127.166826,152.437236 127.097846,152.39227 127.014595,152.36309" id="Fill-25" fill="#010100"></path>
                    <path d="M281.237909,95.5936953 C278.348145,95.5936953 275.45814,95.6168125 272.568859,95.5770798 C271.879936,95.5676884 271.661226,95.7591279 271.66629,96.445902 C271.681964,98.7304131 271.660021,101.016128 271.610347,103.300158 C271.596361,103.938289 271.728021,104.204619 272.447327,104.23785 C278.186102,104.505143 283.922467,104.499845 289.657384,104.169221 C290.876563,104.098906 292.026054,103.769726 293.002652,102.982296 C294.218214,102.00174 294.720016,100.466131 294.297789,99.000114 C293.817447,97.3310988 292.493857,96.1099799 290.982421,95.9517714 C287.741565,95.6134412 284.485758,95.7776698 281.237909,95.5936953 M277.818371,90.0072746 C282.851585,90.2680657 287.108826,90.1690951 291.366067,90.3708892 C295.540358,90.5685896 298.976052,94.4912929 299.735627,97.7532289 C300.663033,101.733966 299.112775,105.634997 295.677564,107.900725 C294.170228,108.894766 292.512906,109.519653 290.732605,109.628015 C282.785997,110.112513 274.841076,110.236287 266.909899,109.304133 C266.182395,109.218648 265.993586,108.95593 266.000165,108.253744 C266.054352,102.436392 266.089558,96.6185587 266.080394,90.8009658 C266.079189,90.0019769 266.448608,89.9983648 267.028297,90.0001363 C270.885012,90.0132947 274.741969,90.0072746 277.818371,90.0072746" id="Fill-27" fill="#FBE41E"></path>
                    <path d="M172.837952,101.785871 C170.781138,107.440214 168.817903,112.837399 166.844323,118.263587 L178.417091,118.263587 C176.560185,112.778668 174.737438,107.395985 172.837952,101.785871 M173.070336,85 C174.14012,88.1789518 175.172376,91.2544601 176.210406,94.328035 C179.40773,103.795767 182.596393,113.266882 185.822344,122.725188 C186.152637,123.693641 186.105728,123.967235 184.955114,123.962159 C176.620085,123.924455 168.284815,123.966751 159.949545,123.982703 C159.363534,123.983911 158.72099,124.197565 159.128022,123.089174 C163.732881,110.544484 168.293475,97.9833582 172.867542,85.426825 C172.905791,85.3221731 172.963286,85.2240469 173.070336,85" id="Fill-33" fill="#FBE51F"></path>
                    <path d="M280.697794,96.0172247 C283.969009,96.2042782 287.248239,96.0373011 290.512411,96.3812935 C292.034719,96.5421496 293.367832,97.7837048 293.851629,99.4806519 C294.276895,100.971204 293.771482,102.532513 292.547175,103.529478 C291.563552,104.330087 290.405791,104.664775 289.177841,104.736267 C283.401665,105.072424 277.624033,105.077811 271.843971,104.806045 C271.11949,104.772257 270.986883,104.501471 271.00097,103.85266 C271.051001,101.530405 271.073102,99.2064374 271.057316,96.8836936 C271.052215,96.1854259 271.272499,95.9907826 271.966378,96.0003312 C274.876445,96.0407288 277.787241,96.0172247 280.697794,96.0172247" id="Fill-35" fill="#030300"></path>
                    <path d="M353.899121,8.98333997 C350.911711,8.98333997 347.9243,8.96078573 344.937598,8.99969799 C344.221997,9.00911624 343.987315,8.80067542 344.000523,8.03333562 C344.042743,5.6383729 344.023402,3.24217094 344.01043,0.846712529 C344.007599,0.335152657 344.038025,-0.011835628 344.682161,0.000308961964 C350.377251,0.107131784 356.078945,-0.194500175 361.768374,0.305658653 C362.404962,0.361920325 362.981877,0.603325032 363.579548,0.808543818 C365.359588,1.4187475 365.882255,2.81661459 365.990515,4.62120153 C366.098303,6.4173616 365.278452,7.58621642 363.987115,8.5525788 C363.628371,8.82075117 363.237314,8.78456525 362.857107,8.78654804 C359.871112,8.80092327 356.885117,8.7944792 353.899121,8.7944792 L353.899121,8.98333997 Z" id="Fill-37" fill="#020200"></path>
                    <path d="M247.251336,7 C249.138432,12.3980002 251.006811,17.7640048 252.896581,23.1224253 C253.13894,23.8094996 252.97048,23.9934146 252.230032,23.9882005 C248.749248,23.9635521 245.267734,23.9815644 241.786707,23.9998137 C241.218366,24.0026577 240.812894,23.9825124 241.088556,23.2392683 C243.078965,17.8751596 245.054059,12.5053629 247.036932,7.13864726 C247.047628,7.1099698 247.100135,7.09574956 247.251336,7" id="Fill-39" fill="#050401"></path>
                    <path d="M173.214896,101 C175.184505,106.787934 177.074542,112.341229 179,118 L167,118 C169.046438,112.401822 171.08215,106.833566 173.214896,101" id="Fill-41" fill="#020200"></path>
                </g>
                <g id="STAR" transform="translate(-0.000112, 0.009246)">
                    <path d="M139.812315,5.53501887 L139.812315,5.67092176 C131.689609,5.67092176 123.566904,5.66208449 115.444436,5.67307137 C103.319583,5.68955168 91.194492,5.72728921 79.0696387,5.73803724 C76.9924783,5.73947032 74.957641,5.97473278 72.9981769,6.66786139 C65.9956069,9.14444669 61.728583,14.2757958 59.4875989,21.168389 C57.4886649,27.316263 58.1603657,33.0958378 62.5486524,38.1543391 C64.265591,40.1334099 65.9057298,42.1795963 67.5996046,44.1792078 C70.4478538,47.5416698 73.5212713,50.7111449 76.1419744,54.2701764 C77.5013066,56.1159716 77.3488959,58.0575438 76.3126934,59.8732446 C75.254616,61.7273994 73.7442997,63.2853863 71.4112986,63.2887302 C49.8947605,63.3185858 28.3782224,63.3133312 6.86192202,63.2846698 C5.82524398,63.2832367 5.46644876,63.478612 5.47714451,64.6214861 C5.54015752,71.0691107 5.53777982,77.5179296 5.47952612,83.9657931 C5.469302,85.0991134 5.72205172,85.4170162 6.89069222,85.4144051 C27.2181416,85.3685307 47.545591,85.3902656 67.8732781,85.3563496 C74.4100563,85.3453627 80.950401,85.4370792 87.4814727,85.0635254 C90.8784954,84.8691055 94.247699,84.6474572 97.3387116,82.8656724 C102.506647,79.8863181 105.728671,75.4373496 107.360725,69.7979769 C108.858915,64.6190976 108.504875,59.7545386 105.032955,55.2417984 C101.716774,50.9320766 98.4973657,46.5437748 95.1643031,42.2438456 C93.1948526,39.7032498 91.1773725,37.1946593 89.5298629,34.4190399 C88.8916877,33.3435202 88.4349311,32.217843 88.5638026,30.9235412 C88.9344863,27.1963627 91.0549209,25.335759 95.0473202,25.3178456 C109.747225,25.2524021 124.447129,25.2182472 139.146796,25.1191265 C140.330416,25.1112446 140.637377,25.3763627 140.634524,26.5954283 C140.590774,45.7809034 140.611222,64.9666173 140.581977,84.1523312 C140.58055,85.1356567 140.819985,85.4162997 141.818857,85.4100897 C148.753187,85.3647092 155.687993,85.3592157 162.622085,85.4144051 C163.741745,85.4222708 164.064161,85.1812761 164.061545,83.999948 C164.019936,64.8937695 164.042286,45.7878299 164.006383,26.6816514 C164.004243,25.5297013 164.205159,25.156864 165.46225,25.1628351 C177.666518,25.220158 189.871262,25.1840924 202.075531,25.2215911 C203.082012,25.224696 203.310283,24.9476357 203.300047,23.967654 C203.251067,18.2759743 203.233947,12.5831002 203.310283,6.89213698 C203.325726,5.68286402 202.953378,5.50826822 201.864391,5.5101636 C181.180286,5.54409499 160.496181,5.53501887 139.812315,5.53501887 L139.812315,5.53501887 Z M142.365491,0.0308325204 C164.041335,0.0308325204 185.717179,0.0422970873 207.393261,1.06947045e-05 C208.571412,-0.00212810952 208.788497,0.316013623 208.782669,1.43500312 C208.733572,10.7891344 208.738803,20.1439821 208.778748,29.4983522 C208.782669,30.484305 208.552629,30.7475123 207.552092,30.7444073 C195.307164,30.7066698 183.062237,30.7367643 170.817548,30.6916225 C169.693846,30.6875622 169.48865,31.0293496 169.490077,32.0752525 C169.520987,51.2222735 169.499588,70.3690556 169.543813,89.5158378 C169.546666,90.7146015 169.199522,90.9142761 168.101023,90.909738 C157.600378,90.8665071 147.09902,90.8574309 136.598375,90.917726 C135.301814,90.925263 135.086156,90.5208981 135.088534,89.3335989 C135.124675,70.2267039 135.104465,51.1195701 135.138941,32.0121973 C135.141081,30.922347 134.866932,30.6407485 133.777945,30.6486304 C120.940019,30.7381973 108.101617,30.7721134 95.2636911,30.8311081 C94.8927696,30.83278 94.3860813,30.6273732 94.1768435,31.0314992 C93.9488219,31.4721685 94.3672975,31.8447669 94.5984101,32.196347 C97.220302,36.1869716 100.307986,39.8245832 103.192851,43.6162498 C105.621436,46.8081764 107.997712,50.0373627 110.333328,53.2997485 C112.987795,57.0080582 113.955995,61.1520215 113.599577,65.5931081 C112.966633,73.480969 109.737476,80.1034283 103.635817,85.2211632 C99.1761996,88.9614782 93.9333668,90.3458246 88.2359175,90.5715333 C81.0264874,90.8574309 73.8156308,90.8598194 66.6050119,90.871284 C44.8497525,90.9059165 23.0942554,90.874389 1.33899597,90.9111711 C0.223615995,90.9130819 5.5268133e-05,90.5899244 5.5268133e-05,89.5318404 C0.0417217969,79.3813994 0.0426728777,69.2307197 5.5268133e-05,59.0802787 C-0.00416785045,58.0379585 0.231937952,57.7680635 1.29120416,57.7697354 C23.9580745,57.804368 46.6249448,57.7962472 69.2915773,57.7962472 C69.5690551,57.7962472 69.8467707,57.7878876 70.123773,57.7976803 C70.6109641,57.8148771 71.168773,57.8313575 71.3796752,57.3383811 C71.5494431,56.9423758 71.0815113,56.645969 70.8408879,56.3650871 C68.1022508,53.167906 65.3296126,49.999864 62.5992975,46.7952787 C61.0029084,44.9215386 59.4735705,42.9902367 57.9019095,41.095717 C52.7924658,34.9366173 51.8285455,27.9026278 53.9977229,20.4427774 C56.7427798,11.0021842 62.5362883,4.25863042 72.0941746,1.19424722 C74.4143361,0.450244594 76.811773,0.22811861 79.2424977,0.22907399 C100.283495,0.238150106 121.324493,0.234567429 142.365491,0.234567429 L142.365491,0.0308325204 Z" id="Fill-4" fill="#FBE41F"></path>
                    <path d="M340.672096,55.3361761 C341.258863,55.8867522 341.63336,56.2345848 342.004062,56.5862292 C347.492968,61.7925206 352.955072,67.0269245 358.478131,72.1960502 C362.467388,75.9292945 366.51499,79.5994047 370.884437,82.8961905 C372.752178,84.3056272 374.785466,85.0832475 377.116881,85.1411401 C379.210648,85.193315 381.302755,85.3612753 383.396285,85.3681843 C398.060483,85.4167856 412.724918,85.4291741 427.389115,85.4846844 C428.221594,85.4880852 428.444063,85.2726494 428.423191,84.4380895 C428.262388,78.0081898 428.120795,71.5773371 428.046086,65.1460079 C428.033515,64.0443792 427.797053,63.7101264 426.629686,63.6984526 C413.31121,63.5628932 399.993209,63.3599114 386.675445,63.1714624 C386.207739,63.1647916 385.720111,63.2474614 385.302685,62.9317914 C382.54839,60.8469401 379.954424,58.5967492 377.866112,55.8071795 C377.26796,55.0076411 377.382041,54.5480732 378.294447,54.0720667 C380.078703,53.1417337 381.812915,52.1113392 383.546179,51.0854713 C386.67592,49.2336202 389.425946,46.9345897 391.594897,43.9846835 C395.453235,38.7366999 396.451024,32.8416523 395.568027,26.4898958 C395.157954,23.5397514 394.345872,20.7956858 392.646287,18.2998679 C387.473771,10.7042525 380.47834,6.88142951 371.190865,6.73562572 C352.969303,6.44949768 334.748689,6.56599777 316.528313,6.47516666 C315.724532,6.4714159 315.466247,6.64414098 315.466247,7.50347806 C315.489967,33.1532722 315.489967,58.8030663 315.466247,84.4528605 C315.466247,85.3098151 315.720737,85.4870668 316.526415,85.4837314 C324.234316,85.4534747 331.942216,85.4482334 339.649879,85.4880852 C340.600944,85.4930228 340.815586,85.2121361 340.808471,84.2941916 C340.73637,75.1623951 340.710755,66.0301221 340.672333,56.8978491 C340.670436,56.4711586 340.672096,56.044468 340.672096,55.3361761 M346.188988,68.2128907 C346.188988,69.015288 346.186853,69.4881974 346.189225,69.961345 C346.223615,76.5923206 346.241878,83.2232961 346.313504,89.8537952 C346.322991,90.7252826 346.132303,90.993066 345.221083,90.9907193 C333.836994,90.9578063 322.452906,90.9611416 311.068817,90.9859188 C310.271203,90.9875864 310.000112,90.8203409 310.000112,89.9557625 C310.023356,60.6522968 310.022882,31.3490693 310.000112,2.04584188 C310.000112,1.21938213 310.198153,0.985905462 311.03917,0.990830218 C331.275995,1.10693214 351.51282,0.884176343 371.750357,1.27322471 C383.043134,1.49026271 391.40919,6.54312659 397.550797,15.7888025 C399.614918,18.8959481 400.542977,22.3766564 401.026574,26.0415253 C401.928782,32.8781033 400.950916,39.3203915 397.314809,45.2564166 C394.912242,49.1788246 391.697119,52.2997882 387.893094,54.8320571 C387.203156,55.2913867 386.496142,55.7242715 385.786045,56.1762156 C386.671176,57.2778443 387.713079,57.7414622 389.155094,57.7555185 C403.501479,57.8963192 417.84739,58.1219339 432.193775,58.2786968 C433.204608,58.2894177 433.401462,58.5974639 433.416404,59.5490004 C433.574362,69.6325717 433.769318,79.7159048 433.998665,89.7980467 C434.020011,90.7305239 433.812958,90.9942572 432.858335,90.9907193 C416.494078,90.9306467 400.129584,90.9189729 383.765327,90.8696569 C380.960751,90.8613185 378.159733,90.7062232 375.360849,90.4686965 C372.931718,90.2626176 370.768459,89.4411609 368.768375,88.0755606 C364.569456,85.2092772 360.839429,81.7728819 357.089954,78.3667432 C353.77759,75.3579914 350.545864,72.2594225 347.277851,69.2015929 C346.997987,68.940242 346.711007,68.6865148 346.188988,68.2128907" id="Fill-9" fill="#FBE51F"></path>
                    <path d="M248.393569,6.50739186 C242.481212,6.50739186 236.568856,6.52219131 230.656499,6.4906828 C229.84185,6.48614748 229.428849,6.66827625 229.137193,7.52401885 C220.376639,33.2180188 211.585336,58.9012773 202.779366,84.579523 C202.501903,85.3882415 202.528632,85.6572574 203.491593,85.6522447 C210.389381,85.6159621 217.28717,85.6195426 224.184959,85.652006 C224.947096,85.6555865 225.27849,85.4324012 225.494926,84.6929059 C226.419567,81.5353708 227.433147,78.4043316 228.353058,75.245603 C228.602372,74.3903378 228.972797,74.0933939 229.89318,74.1007936 C242.465364,74.203435 255.038021,74.2662133 267.610679,74.3060764 C268.396233,74.3084634 268.672041,74.5770019 268.883036,75.3093361 C269.849071,78.6611737 270.904047,81.9869929 271.884512,85.3347725 C272.093614,86.0494429 272.394022,86.3124913 273.175792,86.3120139 C279.875832,86.3079559 286.576108,86.3339743 293.275675,86.4167444 C294.43946,86.4304095 294.441825,86.0904995 294.114688,85.1387991 C285.230896,59.2784246 276.367211,33.4108891 267.529781,7.53428299 C267.242147,6.69119153 266.838844,6.48423788 266.012367,6.48916238 C260.13975,6.52338482 254.266659,6.50739186 248.393569,6.50739186 L248.393569,6.50739186 Z M285.089445,91.7744445 C279.769152,91.7744445 274.448622,91.754871 269.128566,91.7956889 C268.349398,91.8016564 268.054431,91.5343114 267.845564,90.8210732 C266.865573,87.4735323 265.806576,84.1496227 264.842433,80.7975464 C264.630491,80.0594834 264.352555,79.7890353 263.570312,79.786887 C253.679327,79.7587203 243.787868,79.7088318 233.897119,79.6145449 C232.967984,79.605713 232.614117,79.9329719 232.367168,80.7760634 C231.453408,83.8949289 230.440537,86.9844342 229.539077,90.1071189 C229.295439,90.9509265 228.905382,91.1688604 228.068971,91.1667121 C217.388646,91.1373519 206.708085,91.1335327 196.027524,91.1681443 C194.949367,91.1714861 194.823764,90.9583262 195.175738,89.9328673 C205.230173,60.6232653 215.255751,31.3033992 225.26004,1.97637201 C225.53088,1.18269163 225.907218,0.994356649 226.69088,0.995788854 C241.115185,1.02061374 255.540199,1.02323945 269.964504,0.990765165 C270.844911,0.988627828 271.152889,1.30180336 271.422309,2.08999363 C281.527838,31.6337612 291.653,61.1706064 301.80631,90.6974262 C302.162778,91.7352975 302.111449,92.003836 300.929924,91.9902717 C295.650079,91.9269743 290.369525,91.9625408 285.089445,91.9625408 L285.089445,91.7744445 Z" id="Fill-11" fill="#FBE41F"></path>
                    <path d="M139.448586,5.01563937 C160.149899,5.01563937 180.851449,5.02472636 201.553,4.9907543 C202.642906,4.98885665 203.015568,5.16366169 203.000112,6.37438387 C202.923712,12.0721673 202.940845,17.7718637 202.989867,23.4703645 C203.000112,24.4515206 202.771648,24.728913 201.764318,24.7258043 C189.549756,24.6882606 177.334718,24.7243695 165.120156,24.6669779 C163.862004,24.6609996 163.660919,25.0342837 163.663061,26.1876144 C163.698995,45.31669 163.676625,64.4455265 163.71827,83.5746021 C163.720888,84.7573459 163.3982,84.9986295 162.277595,84.9907543 C155.337655,84.9354988 148.397,84.9409988 141.456821,84.9864338 C140.457106,84.9926512 140.21747,84.7116718 140.218898,83.727168 C140.248168,64.5184616 140.227703,45.3097552 140.271489,26.1012879 C140.274345,24.8807614 139.967125,24.6153256 138.782506,24.6232169 C124.070441,24.7224564 109.358138,24.7566522 94.6458352,24.8221742 C90.6500685,24.840109 88.5278455,26.7029425 88.1568491,30.4345877 C88.0278689,31.7304406 88.4850107,32.8574668 89.1237242,33.9342754 C90.7726235,36.7132212 92.7918052,39.2248181 94.7629168,41.7684586 C98.0987906,46.0735408 101.320914,50.4671017 104.639892,54.7819883 C108.114741,59.3001366 108.46908,64.1705254 106.969626,69.3556111 C105.336195,75.0017422 102.111453,79.4560424 96.9391592,82.4389672 C93.8455396,84.2228873 90.4734942,84.4448012 87.0736063,84.6394542 C80.537026,85.0134556 73.9911649,84.9216292 67.4488733,84.9326292 C47.1040409,84.9665859 26.7594464,84.9448249 6.41485197,84.9907543 C5.24522578,84.9933686 4.99226289,84.6750847 5.00249563,83.5404063 C5.06079846,77.0848156 5.06317817,70.6282683 5.00011201,64.1729167 C4.98940724,63.0286731 5.34850508,62.8330636 6.38605751,62.8344984 C27.9205057,62.8631942 49.4551918,62.8684551 70.9898779,62.8385636 C73.3248468,62.8352158 74.8364369,61.2753618 75.8954067,59.4189849 C76.9324832,57.6011081 77.0850225,55.6572092 75.7245437,53.8092018 C73.1016303,50.2459051 70.0256205,47.0726317 67.174969,43.7061402 C65.4796654,41.7041322 63.8381433,39.6554937 62.1197566,37.6740511 C57.7277686,32.6094876 57.0555013,26.8229865 59.0561213,20.6677447 C61.2989955,13.7668914 65.5696184,8.62939278 72.5780946,6.1498395 C74.5392115,5.45588024 76.5757651,5.22033583 78.6546775,5.21890104 C90.7897574,5.20814013 102.925075,5.17035737 115.060155,5.1538573 C123.189474,5.14285726 131.31903,5.15170512 139.448586,5.15170512 L139.448586,5.01563937 Z" id="Fill-17" fill="#010100"></path>
                    <path d="M353.64441,41.5293193 C356.650027,41.4590495 360.403964,41.4888249 364.158613,41.4099797 C366.940019,41.35162 368.905249,40.0779496 370.751611,38.2021025 C373.994251,34.9070431 373.950595,26.1633326 367.999862,23.5073712 C365.811371,22.5307397 363.574952,22.0657679 361.231766,22.042424 C354.433776,21.9747744 347.63531,21.9683429 340.83732,21.9021792 C340.059817,21.8949764 339.83869,22.1110264 339.84296,22.8973339 C339.874991,28.7704623 339.878312,34.6443054 339.840512,40.5174338 C339.835131,41.383301 340.122453,41.5545688 340.919412,41.5469463 C344.911321,41.5085957 348.90418,41.5293193 353.64441,41.5293193 M340.215222,54.8439035 C340.215222,55.5518423 340.213799,55.9784635 340.21546,56.4050847 C340.253896,65.5358748 340.279757,74.6666649 340.351884,83.7969785 C340.359002,84.7150121 340.144281,84.9958532 339.192866,84.9906845 C331.482371,84.9508329 323.771639,84.9563116 316.060907,84.9863251 C315.254695,84.98966 315.000112,84.8124371 315.000112,83.9556216 C315.024078,58.3099926 315.024078,32.6643636 315.000112,7.01873464 C315.000112,6.15977531 315.258729,5.98684007 316.062805,5.99082077 C334.289876,6.08164479 352.516947,5.96492541 370.745205,6.25100698 C380.036093,6.39702531 387.034094,10.2192276 392.208511,17.8133713 C393.90872,20.3087839 394.721338,23.0526421 395.131324,26.0020693 C396.014645,32.3530325 395.01649,38.2471228 391.156734,43.4940161 C388.986986,46.4436815 386.235949,48.7421004 383.105296,50.593889 C381.371158,51.6193521 379.636546,52.6498175 377.851397,53.5799994 C376.938893,54.0559286 376.824533,54.5154219 377.423142,55.3145923 C379.511984,58.103709 382.10714,60.3535345 384.862211,62.4380473 C385.279789,62.7539042 385.767834,62.6712478 386.235475,62.6776793 C399.558369,62.8660977 412.881027,63.0692847 426.204396,63.2045839 C427.372192,63.216494 427.608741,63.5504544 427.621553,64.6519042 C427.696053,71.082189 427.837698,77.5122356 427.998798,83.9410912 C428.019677,84.7755156 427.796889,84.9906845 426.964104,84.9872779 C412.294519,84.9320149 397.624696,84.9193901 382.95511,84.8707968 C380.861048,84.8641271 378.768172,84.6961941 376.673635,84.6440277 C374.341126,84.5861444 372.307091,83.8084122 370.438664,82.3992044 C366.067612,79.102954 362.01876,75.4336779 358.028036,71.7008017 C352.502712,66.5327535 347.0386,61.2989614 341.547915,56.0937537 C341.17684,55.7419281 340.802205,55.394152 340.215222,54.8439035" id="Fill-21" fill="#010000"></path>
                    <path d="M248.681384,17.4051562 C248.545127,17.5719198 248.485308,17.6165972 248.463943,17.6756095 C243.852823,30.29971 239.349236,42.9627539 234.974784,55.6719086 C234.663815,56.5752513 234.980006,56.6954262 235.805854,56.6919184 C244.146225,56.6528991 252.486834,56.6354582 260.827443,56.6607833 C261.844619,56.6636503 261.89257,56.3994088 261.596082,55.5254529 C257.939469,44.750087 254.319413,33.9625364 250.683216,23.1804809 C250.040863,21.2751231 249.367177,19.3805165 248.681384,17.4051562 M247.929362,6.0090857 C253.823288,6.0090857 259.717213,6.02509309 265.610665,5.99083966 C266.44031,5.98591081 266.844807,6.19281236 267.133462,7.03690379 C276.002243,32.9368686 284.897373,58.8277545 293.812681,84.711473 C294.140978,85.6640324 294.138604,86.0042493 292.970691,85.9903469 C286.247357,85.9077271 279.523311,85.8816852 272.799502,85.8857468 C272.014959,85.8862246 271.713485,85.6226999 271.503641,84.9076233 C270.519698,81.5568216 269.46098,78.2280003 268.491517,74.873137 C268.279773,74.1401417 268.003225,73.8713608 267.214646,73.8689716 C254.597386,73.8290726 241.980364,73.7659987 229.363341,73.6635036 C228.439693,73.6558583 228.067955,73.9533091 227.817755,74.8093463 C226.894582,77.9709263 225.877405,81.1047919 224.949484,84.2651773 C224.732281,85.0051012 224.39971,85.2287269 223.63487,85.2251431 C216.712611,85.1926505 209.790352,85.1890667 202.868093,85.225382 C201.901716,85.2303993 201.874892,84.9611406 202.153339,84.151692 C210.990549,58.4502667 219.81304,32.7438242 228.604673,7.02663039 C228.897363,6.17011531 229.31183,5.98782214 230.129369,5.99212264 C236.0627,6.02365959 241.996031,6.0090857 247.929362,6.0090857" id="Fill-23" fill="#010100"></path>
                    <path d="M355.411521,36.3932508 L355.411521,36.2084619 C358.409468,36.2084619 361.407415,36.2147671 364.405361,36.2007018 C364.787091,36.1987617 365.179713,36.2341675 365.539893,35.9717769 C366.836398,35.0262495 367.659531,33.8825954 367.551311,32.1251609 C367.442618,30.3594813 366.917859,28.9917525 365.130694,28.3947049 C364.530631,28.1939107 363.951407,27.9577107 363.312271,27.902662 C357.60007,27.4132867 351.875554,27.7084154 346.157669,27.6038957 C345.510956,27.592013 345.480408,27.9315201 345.48325,28.4320507 C345.496274,30.7758625 345.515692,33.1204019 345.473304,35.4637287 C345.460043,36.2145245 345.695663,36.4184713 346.414129,36.4092561 C349.412786,36.3711828 352.412154,36.3932508 355.411521,36.3932508 M353.777569,41.9725658 C349.046212,41.9725658 345.061264,41.9514678 341.077026,41.9905112 C340.281362,41.9982713 339.994592,41.8239102 340.000192,40.9424041 C340.037927,34.9631982 340.034375,28.9832648 340.002643,23.0040589 C339.998144,22.2035495 340.219082,21.9835974 340.994854,21.9909303 C347.779781,22.058289 354.565418,22.0648366 361.350345,22.1337081 C363.689027,22.1574736 365.921148,22.6308435 368.105197,23.6251145 C374.044731,26.3290464 374.088067,35.2306813 370.851657,38.5852545 C369.009081,40.4949822 367.047628,41.791657 364.271567,41.8510707 C360.524133,41.9313399 356.77741,41.9010268 353.777569,41.9725658" id="Fill-29" fill="#FBE51F"></path>
                    <path d="M248.786186,34.4967397 C248.637971,34.5925572 248.586501,34.6067875 248.576017,34.6354853 C246.632312,40.0060081 244.696232,45.3796141 242.74514,50.747528 C242.474923,51.4912994 242.872386,51.5114591 243.4295,51.508613 C246.841766,51.4903507 250.254509,51.4723257 253.666536,51.4969916 C254.392358,51.5022093 254.557491,51.3181639 254.319919,50.6306022 C252.467478,45.2683805 250.636006,39.8985692 248.786186,34.4967397 M248.876973,17.9907543 C249.565383,19.9516924 250.241403,21.8327035 250.886207,23.7239131 C254.536521,34.4272483 258.170394,45.1360385 261.840963,55.8327329 C262.138583,56.7003081 262.090449,56.9628575 261.06939,56.9597743 C252.696948,56.934634 244.324267,56.9521848 235.952301,56.990682 C235.123301,56.9941642 234.805903,56.8748667 235.118059,55.9781193 C239.509207,43.3617548 244.029983,30.7911644 248.658702,18.259233 C248.680148,18.2006515 248.740196,18.1565375 248.876973,17.9907543" id="Fill-31" fill="#FBE41E"></path>
                </g>
                <text id="A-VISUAL-EXPERIENCE" font-family="Roboto-Light, Roboto" font-size="36" font-weight="300" letter-spacing="3.5" fill="#FFFFFF">
                    <tspan x="0" y="137">A VISUAL EXPERIENCE</tspan>
                </text>
            </g>
        </g>
    </g>
</svg>